<?xml version="1.0" encoding="UTF-8"?>
<svg width="1600" height="198" id="Layer_1" data-name="Layer 1" xmlns="http://www.w3.org/2000/svg" xmlns:xlink="http://www.w3.org/1999/xlink" viewBox="0 0 1600 198">
  <defs>
    <linearGradient id="linear-gradient" x1="502.81" y1="518.37" x2="502.81" y2="517.26" gradientTransform="translate(805302 102616.39) rotate(-180) scale(1600 198)" gradientUnits="userSpaceOnUse">
      <stop offset="0" stop-color="#57bbc1" stop-opacity=".25"/>
      <stop offset="1" stop-color="#015871"/>
    </linearGradient>
  </defs>
  <path d="m1599.99,121C1289,121,1190.1-.25,789,0,389,0,289,121,0,121v77h1600s0-48,0-77Z" style="fill: url(#linear-gradient); fill-rule: evenodd;"/>
  <path d="m1600,144.32c-310.99,0-409.89-121.25-810.99-121C389,23.32,289,144.32,0,144.32" style="fill: none; fill-rule: evenodd; stroke: #fff; stroke-miterlimit: 10;"/>
  <path d="m1603.67,166.43c-310.99,0-409.89-121.25-810.99-121-400,0-500,121-789,121" style="fill: none; fill-rule: evenodd; stroke: #fff; stroke-miterlimit: 10;"/>
  <path d="m1603.67,187.93c-310.99,0-409.89-121.25-810.99-121-400,0-500,121-789,121" style="fill: none; fill-rule: evenodd; stroke: #fff; stroke-miterlimit: 10;"/>
  <path d="m1603.67,204.82c-310.99,0-409.89-121.25-810.99-121-400,0-500,121-789,121" style="fill: none; fill-rule: evenodd; stroke: #fff; stroke-miterlimit: 10;"/>
  <path d="m1603.67,251.68c-310.99,0-409.89-121.25-810.99-121-400,0-500,121-789,121" style="fill: none; fill-rule: evenodd; stroke: #fff; stroke-miterlimit: 10;"/>
  <path d="m1603.67,271.76c-310.99,0-409.89-121.25-810.99-121-400,0-500,121-789,121" style="fill: none; fill-rule: evenodd; stroke: #fff; stroke-miterlimit: 10;"/>
  <path d="m1603.67,297.63c-310.99,0-409.89-121.25-810.99-121-400,0-500,121-789,121" style="fill: none; fill-rule: evenodd; stroke: #fff; stroke-miterlimit: 10;"/>
  <path d="m1603.67,226.93c-310.99,0-409.89-121.25-810.99-121-400,0-500,121-789,121" style="fill: none; fill-rule: evenodd; stroke: #fff; stroke-miterlimit: 10; stroke-width: 4px;"/>
</svg>